# xmcd
#
# Track frame offsets:
#	150
#	47497
#	90390
#	114925
#	151590
#	184147
#	207520
#	233995
#	259885
#	288245
#
# Disc length: 4150 seconds
#
# Revision: 1
# Processed by: cddbd v1.5.1PL2 Copyright (c) Steve Scherf et al.
# Submitted via: audiograbber 1.83.01
#
DISCID=7d10340a
DTITLE=Various Artist - VA-Deletions-Vol 1 (1997)
DYEAR=1997
DGENRE=Techno
TTITLE0=Planetary Assault Systems - Surface Noise
TTITLE1=Planetary Assault Systems - Gruve
TTITLE2=Planetary Assault Systems - Funk Electric
TTITLE3=Glenn Underground - C.V.O. Trance
TTITLE4=Glenn Underground - Sea Quest
TTITLE5=Glenn Underground - Cat N.A. Thytrap
TTITLE6=Purveyors Of Fine Funk - Summer Funk
TTITLE7=Purveyors Of Fine Funk - Z Mood
TTITLE8=Purveyors Of Fine Funk - Hot
TTITLE9=Purveyors Of Fine Funk - Ashes Smashing Red
EXTD=Ummm......this aint no blues album.........\n
EXTT0=
EXTT1=
EXTT2=
EXTT3=
EXTT4=
EXTT5=
EXTT6=
EXTT7=
EXTT8=
EXTT9=
PLAYORDER=
